<?xml version="1.0" standalone="no"?>
<svg xmlns="http://www.w3.org/2000/svg" width="24" height="24"><rect width="24" height="24" opacity="0"></rect><g><path d="M9.43 20.06Q9.34 20.06 9.28 20.12Q9.22 20.18 9.22 20.28Q9.31 21.36 10.13 22.12Q10.94 22.87 12.07 22.87Q13.18 22.87 13.99 22.12Q14.81 21.36 14.88 20.28Q14.88 20.18 14.83 20.12Q14.78 20.06 14.69 20.06L9.43 20.06ZM4.8 17.38Q4.73 17.38 4.67 17.33Q4.61 17.28 4.56 17.23Q4.56 17.18 4.54 17.16Q4.54 17.04 4.58 16.97L5.23 16.15Q5.93 15.26 5.93 14.16L5.93 9.89Q5.93 9.38 6 8.93L4.75 7.68Q4.42 8.81 4.42 9.91L4.42 14.16Q4.42 14.47 4.33 14.74Q4.25 15 4.06 15.24L3.41 16.06Q3.1 16.46 3.05 16.96Q3 17.45 3.22 17.9Q3.46 18.36 3.88 18.62Q4.3 18.89 4.8 18.89L15.98 18.89L14.47 17.38L4.8 17.38ZM20.88 17.9Q21.1 17.42 21.05 16.93Q21 16.44 20.69 16.03L20.06 15.24Q19.9 15 19.8 14.74Q19.7 14.47 19.7 14.16L19.7 9.79Q19.7 8.26 19.09 6.86Q18.48 5.47 17.38 4.43Q16.27 3.38 14.83 2.86L14.64 2.81Q14.47 2.76 14.3 2.71Q14.11 1.99 13.49 1.54Q12.86 1.08 12.07 1.08Q11.26 1.08 10.63 1.55Q10.01 2.02 9.82 2.71Q8.5 3.12 7.61 3.79Q7.37 3.96 7.13 4.15L8.18 5.21Q8.33 5.09 8.47 4.99Q10.08 3.86 12.05 3.86Q13.15 3.86 14.33 4.27Q16.06 4.87 17.12 6.4Q18.19 7.92 18.19 9.77L18.19 14.16Q18.19 14.86 18.48 15.5L19.37 16.39Q19.49 16.51 19.56 16.58Q19.63 16.66 19.75 16.78L20.88 17.9Z" fill="rgba(0,0,0,0.9019607843137255)"></path><path d="M22.18 22.18Q22.39 21.96 22.39 21.65Q22.39 21.34 22.18 21.12L2.83 1.78Q2.62 1.54 2.3 1.54Q1.99 1.54 1.78 1.78Q1.56 1.97 1.56 2.29Q1.56 2.62 1.78 2.81L21.12 22.18Q21.34 22.39 21.65 22.39Q21.96 22.39 22.18 22.18Z" fill="rgba(0,0,0,0.9019607843137255)"></path></g></svg>