<?xml version="1.0" standalone="no"?>
<svg xmlns="http://www.w3.org/2000/svg" width="24" height="24"><rect width="24" height="24" opacity="0"></rect><g><path d="M14.81 3.84Q14.21 2.81 13.1 2.42Q12 2.04 10.9 2.42Q9.79 2.81 9.19 3.84L1.54 16.9Q0.91 17.93 1.13 19.08Q1.34 20.23 2.22 21.01Q3.1 21.79 4.32 21.79L19.66 21.79Q20.88 21.79 21.77 21.02Q22.66 20.26 22.87 19.1Q23.09 17.95 22.46 16.9L14.81 3.84ZM12 14.81Q11.59 14.81 11.29 14.51Q10.99 14.21 10.99 13.8L10.99 8.66Q10.99 8.26 11.29 7.97Q11.59 7.68 12 7.68Q12.41 7.68 12.71 7.97Q13.01 8.26 13.01 8.66L13.01 13.8Q13.01 14.21 12.71 14.51Q12.41 14.81 12 14.81ZM12 16.13Q12.53 16.13 12.89 16.49Q13.25 16.85 13.25 17.38Q13.25 17.9 12.89 18.26Q12.53 18.62 12 18.62Q11.47 18.62 11.11 18.26Q10.75 17.9 10.75 17.38Q10.75 16.85 11.11 16.49Q11.47 16.13 12 16.13Z" fill="rgba(0,0,0,0.9019607843137255)"></path></g></svg>