<svg xmlns="http://www.w3.org/2000/svg" width="21" height="22" viewBox="0 0 21 22" fill="none">
  <path d="M5.05 1.15L7.6 4.05C8.17 4.7 8.15 5.68 7.55 6.3L6.25 7.65C7.41 10.31 9.52 12.63 12.05 14.05L13.62 12.78C14.3 12.23 15.28 12.29 15.89 12.92L18.64 15.75C19.34 16.47 19.34 17.63 18.64 18.35L17.62 19.4C16.78 20.27 15.52 20.61 14.36 20.28C7.93 18.48 2.77 13.08 1.18 6.54C0.9 5.38 1.24 4.17 2.08 3.33L3.03 2.38C3.6 1.81 4.45 1.28 5.05 1.15Z" stroke="currentColor" stroke-width="1.5" stroke-linecap="round" stroke-linejoin="round"/>
</svg>
