<?xml version="1.0" standalone="no"?>
<svg xmlns="http://www.w3.org/2000/svg" width="24" height="24"><rect width="24" height="24" opacity="0"></rect><g><path d="M19.99 3Q20.66 3 21.24 3.34Q21.82 3.67 22.15 4.25Q22.49 4.82 22.49 5.5L22.49 13.97Q22.49 14.81 21.9 15.4Q21.31 15.98 20.5 15.98L3.5 15.98Q2.69 15.98 2.1 15.4Q1.51 14.81 1.51 13.97L1.51 5.5Q1.51 4.82 1.85 4.25Q2.18 3.67 2.76 3.34Q3.34 3 4.01 3L19.99 3ZM15.24 4.73Q14.83 4.73 14.53 5.02Q14.23 5.3 14.23 5.74Q14.23 6.14 14.53 6.43Q14.83 6.72 15.24 6.72Q15.65 6.72 15.95 6.43Q16.25 6.14 16.25 5.74Q16.25 5.3 15.95 5.02Q15.65 4.73 15.24 4.73ZM11.5 4.73Q11.09 4.73 10.79 5.02Q10.49 5.3 10.49 5.74Q10.49 6.14 10.79 6.43Q11.09 6.72 11.5 6.72Q11.9 6.72 12.19 6.43Q12.48 6.14 12.48 5.74Q12.48 5.3 12.19 5.02Q11.9 4.73 11.5 4.73ZM18.98 13.97Q19.39 13.97 19.69 13.68Q19.99 13.39 19.99 12.98Q19.99 12.58 19.69 12.28Q19.39 11.98 18.98 11.98L4.99 11.98Q4.58 11.98 4.28 12.28Q3.98 12.58 3.98 12.98Q3.98 13.39 4.28 13.68Q4.58 13.97 4.99 13.97L18.98 13.97ZM18.98 6.72Q19.39 6.72 19.69 6.43Q19.99 6.14 19.99 5.74Q19.99 5.3 19.69 5.02Q19.39 4.73 18.98 4.73Q18.58 4.73 18.29 5.02Q18 5.3 18 5.74Q18 6.14 18.29 6.43Q18.58 6.72 18.98 6.72Z" fill="rgba(0,0,0,0.9019607843137255)"></path><path d="M5.76 20.57Q5.5 20.4 5.41 20.1Q5.33 19.8 5.47 19.54L6.72 17.38Q6.89 17.11 7.19 17.03Q7.49 16.94 7.75 17.11Q8.02 17.28 8.1 17.58Q8.18 17.88 8.02 18.12L6.77 20.28Q6.58 20.59 6.26 20.65Q5.95 20.71 5.76 20.57ZM12.48 21Q12.17 21 11.95 20.78Q11.74 20.57 11.74 20.26L11.74 17.76Q11.74 17.45 11.95 17.22Q12.17 16.99 12.48 16.99Q12.79 16.99 13.02 17.22Q13.25 17.45 13.25 17.76L13.25 20.26Q13.25 20.57 13.02 20.78Q12.79 21 12.48 21ZM19.22 20.54Q18.94 20.71 18.66 20.63Q18.38 20.54 18.22 20.28L16.97 18.12Q16.8 17.86 16.88 17.54Q16.97 17.23 17.23 17.11Q17.5 16.94 17.8 17.03Q18.1 17.11 18.24 17.38L19.51 19.54Q19.66 19.8 19.57 20.1Q19.49 20.4 19.22 20.54Z" fill="rgba(0,0,0,0.9019607843137255)"></path></g></svg>