<?xml version="1.0" standalone="no"?>
<svg xmlns="http://www.w3.org/2000/svg" width="24" height="24"><rect width="24" height="24" opacity="0"></rect><g><path d="M19.99 5.5Q20.66 5.5 21.24 5.83Q21.82 6.17 22.15 6.74Q22.49 7.32 22.49 7.99L22.49 16.49Q22.49 17.3 21.91 17.89Q21.34 18.48 20.5 18.48L3.5 18.48Q2.69 18.48 2.1 17.89Q1.51 17.3 1.51 16.49L1.51 7.99Q1.51 7.32 1.85 6.74Q2.18 6.17 2.76 5.83Q3.34 5.5 4.01 5.5L19.99 5.5ZM15.24 7.22Q14.83 7.22 14.53 7.52Q14.23 7.82 14.23 8.23Q14.23 8.64 14.53 8.94Q14.83 9.24 15.24 9.24Q15.65 9.24 15.95 8.94Q16.25 8.64 16.25 8.23Q16.25 7.82 15.95 7.52Q15.65 7.22 15.24 7.22ZM11.5 7.22Q11.09 7.22 10.79 7.52Q10.49 7.82 10.49 8.23Q10.49 8.64 10.79 8.94Q11.09 9.24 11.5 9.24Q11.9 9.24 12.19 8.94Q12.48 8.64 12.48 8.23Q12.48 7.82 12.19 7.52Q11.9 7.22 11.5 7.22ZM18.98 16.49Q19.39 16.49 19.69 16.19Q19.99 15.89 19.99 15.48Q19.99 15.07 19.69 14.78Q19.39 14.5 18.98 14.5L4.99 14.5Q4.58 14.5 4.28 14.78Q3.98 15.07 3.98 15.48Q3.98 15.89 4.28 16.19Q4.58 16.49 4.99 16.49L18.98 16.49ZM18.98 9.24Q19.39 9.24 19.69 8.94Q19.99 8.64 19.99 8.23Q19.99 7.82 19.69 7.52Q19.39 7.22 18.98 7.22Q18.58 7.22 18.29 7.52Q18 7.82 18 8.23Q18 8.64 18.29 8.94Q18.58 9.24 18.98 9.24Z" fill="rgba(0,0,0,0.9019607843137255)"></path></g></svg>