<?xml version="1.0" standalone="no"?>
<svg xmlns="http://www.w3.org/2000/svg" width="24" height="24"><rect width="24" height="24" opacity="0"></rect><g><path d="M22.51 2.18Q22.15 1.61 21.34 1.4Q20.52 1.2 19.6 1.48Q18.67 1.75 17.95 2.52L14.69 6.12L3.46 3.89Q3.26 3.86 3.06 3.92Q2.86 3.98 2.71 4.13L2.14 4.8Q1.9 5.09 1.94 5.45Q1.99 5.81 2.33 6L10.32 10.58L6.5 15.19L2.52 14.26Q2.26 14.21 2.02 14.32Q1.78 14.42 1.68 14.66L1.34 15.36Q1.2 15.65 1.38 15.92Q1.56 16.2 1.87 16.34L5.64 18.36L7.66 22.13Q7.8 22.44 8.08 22.62Q8.35 22.8 8.64 22.66L9.34 22.32Q9.58 22.22 9.68 21.98Q9.79 21.74 9.74 21.48L8.81 17.5L13.42 13.66L17.98 21.65Q18.17 21.98 18.53 22.03Q18.89 22.08 19.18 21.84L19.85 21.26Q20.16 20.95 20.09 20.52L17.86 9.31L21.46 6.02Q22.34 5.23 22.7 4.15Q23.06 3.07 22.51 2.18Z" fill="rgba(0,0,0,0.9019607843137255)"></path></g></svg>