<?xml version="1.0" standalone="no"?>
<svg xmlns="http://www.w3.org/2000/svg" width="24" height="24"><rect width="24" height="24" opacity="0"></rect><g><path d="M21.96 11.35Q23.02 11.04 23.53 10.07Q24.05 9.1 23.74 7.97Q23.52 7.27 23.02 6.79Q22.51 6.31 21.83 6.14Q21.14 5.98 20.45 6.17L15.24 7.61L9.86 3.55Q9.6 3.36 9.22 3.36L7.51 3.36Q7.15 3.36 6.96 3.48Q6.77 3.58 6.62 3.74Q6.48 3.91 6.43 4.1Q6.31 4.56 6.53 4.9L8.93 9.36L4.75 10.49L3.19 9.1Q3 8.95 2.78 8.89Q2.57 8.83 2.35 8.86L0.91 9.1Q0.6 9.19 0.37 9.46Q0.14 9.72 0.11 10.06Q0.07 10.39 0.31 10.7L3.74 15.91L21.96 11.35ZM2.35 10.37L4.34 12.17L11.14 10.3L8.21 4.85L9.1 4.85L14.95 9.24L20.86 7.61Q21.31 7.49 21.74 7.72Q22.18 7.94 22.3 8.35Q22.46 8.9 22.25 9.35Q22.03 9.79 21.6 9.91L4.44 14.21L1.97 10.44Z" fill="rgba(0,0,0,0.9019607843137255)"></path><path d="M22.32 20.64Q22.63 20.64 22.85 20.42Q23.06 20.21 23.06 19.9Q23.06 19.58 22.85 19.36Q22.63 19.13 22.32 19.13L1.87 19.13Q1.56 19.13 1.34 19.36Q1.13 19.58 1.13 19.9Q1.13 20.21 1.34 20.42Q1.56 20.64 1.87 20.64L22.32 20.64Z" fill="rgba(0,0,0,0.9019607843137255)"></path></g></svg>