<?xml version="1.0" standalone="no"?>
<svg xmlns="http://www.w3.org/2000/svg" width="24" height="24"><rect width="24" height="24" opacity="0"></rect><g><path d="M9.67 17.23Q10.01 17.42 10.36 17.35Q10.7 17.28 10.94 17.02Q11.18 16.75 11.18 16.37L11.18 7.61Q11.18 7.22 10.94 6.96Q10.7 6.7 10.36 6.62Q10.01 6.55 9.67 6.74L2.09 11.14Q1.75 11.33 1.64 11.66Q1.54 12 1.64 12.34Q1.75 12.67 2.09 12.86L9.67 17.23ZM20.3 17.23Q20.64 17.42 20.99 17.35Q21.34 17.28 21.56 17.02Q21.79 16.75 21.79 16.37L21.79 7.61Q21.79 7.22 21.56 6.96Q21.34 6.7 20.99 6.62Q20.64 6.55 20.3 6.74L12.72 11.11Q12.38 11.3 12.28 11.65Q12.17 12 12.28 12.34Q12.38 12.67 12.72 12.86L20.3 17.23Z" fill="rgba(0,0,0,0.9019607843137255)"></path></g></svg>