<?xml version="1.0" standalone="no"?>
<svg xmlns="http://www.w3.org/2000/svg" width="24" height="24"><rect width="24" height="24" opacity="0"></rect><g><path d="M22.51 9Q22.1 9 21.8 9.3Q21.5 9.6 21.5 10.01L21.5 13.99Q21.5 14.4 21.8 14.7Q22.1 15 22.51 15Q22.92 15 23.21 14.7Q23.5 14.4 23.5 13.99L23.5 10.01Q23.5 9.6 23.21 9.3Q22.92 9 22.51 9ZM3 5.76Q2.33 5.76 1.75 6.1Q1.18 6.43 0.84 7.01Q0.5 7.58 0.5 8.26L0.5 15.74Q0.5 16.42 0.84 16.99Q1.18 17.57 1.75 17.9Q2.33 18.24 3 18.24L17.78 18.24Q18.48 18.24 19.04 17.9Q19.61 17.57 19.94 17Q20.28 16.44 20.28 15.74L20.28 8.26Q20.28 7.56 19.94 7Q19.61 6.43 19.04 6.1Q18.48 5.76 17.78 5.76L3 5.76ZM13.78 8.69Q13.78 9.74 13.54 10.84Q13.3 11.93 12.77 12.89Q12.02 14.38 10.56 15.24Q9.89 15.65 9.08 15.79Q8.28 15.94 7.68 15.84L7.75 15.6Q8.06 14.52 8.81 13.37Q9.55 12.22 10.9 11.35L11.09 11.21Q11.38 10.99 11.4 10.97Q11.47 10.9 11.51 10.85Q11.54 10.8 11.54 10.75L10.8 11.18Q10.08 11.57 9.49 11.96Q8.9 12.36 8.3 13.01Q7.66 13.73 7.27 14.62L7.08 15.05Q7.03 14.69 6.96 14.35Q6.86 13.87 6.86 13.27Q6.82 11.9 7.61 10.92Q8.33 10.03 9.38 9.56Q10.44 9.1 12.02 8.76Q12.96 8.52 13.42 8.16Q13.78 7.9 13.78 8.69Z" fill="rgba(0,0,0,0.9019607843137255)"></path></g></svg>