<?xml version="1.0" standalone="no"?>
<svg xmlns="http://www.w3.org/2000/svg" width="24" height="24"><rect width="24" height="24" opacity="0"></rect><g><path d="M9.36 20.06Q9.26 20.06 9.2 20.12Q9.14 20.18 9.14 20.28Q9.24 21.36 10.06 22.12Q10.87 22.87 12 22.87Q13.1 22.87 13.92 22.12Q14.74 21.36 14.81 20.28Q14.81 20.18 14.76 20.12Q14.71 20.06 14.62 20.06L9.36 20.06Z" fill="rgba(0,0,0,0.9019607843137255)"></path><path d="M19.99 15.24Q19.82 15 19.73 14.74Q19.63 14.47 19.63 14.16L19.63 9.79Q19.63 8.26 19.02 6.86Q18.41 5.47 17.3 4.43Q16.2 3.38 14.76 2.86L14.57 2.81Q14.4 2.76 14.23 2.71Q14.04 1.99 13.42 1.54Q12.79 1.08 12 1.08Q11.18 1.08 10.56 1.55Q9.94 2.02 9.74 2.71Q8.42 3.12 7.54 3.79Q6.05 4.85 5.2 6.47Q4.34 8.09 4.34 9.91L4.34 14.16Q4.34 14.47 4.26 14.74Q4.18 15 3.98 15.24L3.34 16.06Q3.02 16.46 2.98 16.96Q2.93 17.45 3.14 17.9Q3.38 18.36 3.8 18.62Q4.22 18.89 4.73 18.89L19.22 18.89Q19.73 18.89 20.15 18.62Q20.57 18.36 20.81 17.9Q21.02 17.42 20.98 16.93Q20.93 16.44 20.62 16.03L19.99 15.24Z" fill="rgba(0,0,0,0.9019607843137255)"></path></g></svg>