<?xml version="1.0" standalone="no"?>
<svg xmlns="http://www.w3.org/2000/svg" width="24" height="24"><rect width="24" height="24" opacity="0"></rect><g><path d="M12.14 1.87Q10.18 1.85 8.36 1.97Q6.55 2.09 5.76 2.35Q4.82 2.62 4.21 3.37Q3.6 4.13 3.6 5.14L3.6 6L2.47 6Q2.18 5.98 1.97 6.18Q1.75 6.38 1.75 6.7L1.75 9.24Q1.75 9.43 1.88 9.58Q2.02 9.72 2.21 9.72L2.66 9.72Q2.88 9.72 3.01 9.58Q3.14 9.43 3.14 9.24L3.14 6.91L3.6 6.91L3.6 17.93Q3.6 18.82 4.13 19.54Q4.66 20.26 5.47 20.52L5.47 21.65Q5.47 21.94 5.68 22.15Q5.88 22.37 6.17 22.37L7.56 22.37Q7.82 22.37 8.05 22.15Q8.28 21.94 8.28 21.65L8.28 20.69L15.7 20.69L15.7 21.65Q15.7 21.94 15.91 22.15Q16.13 22.37 16.42 22.37L17.83 22.37Q18.1 22.37 18.29 22.15Q18.48 21.94 18.48 21.65L18.48 20.52Q19.32 20.26 19.85 19.54Q20.38 18.82 20.38 17.93L20.38 5.14Q20.38 4.15 19.78 3.4Q19.18 2.64 18.24 2.38Q17.52 2.16 15.71 2Q13.9 1.85 12.14 1.87ZM16.18 4.42Q16.18 4.7 15.98 4.92Q15.79 5.14 15.48 5.16L8.5 5.16Q8.21 5.16 8 4.93Q7.8 4.7 7.8 4.42Q7.8 4.13 8 3.92Q8.21 3.72 8.5 3.72L15.48 3.72Q15.77 3.72 15.97 3.92Q16.18 4.13 16.18 4.42ZM20.38 5.98L20.38 6.91L20.86 6.91L20.86 9.26Q20.88 9.43 21.01 9.56Q21.14 9.7 21.31 9.7L21.82 9.7Q22.01 9.67 22.13 9.54Q22.25 9.41 22.25 9.22L22.25 6.62Q22.22 6.36 22.01 6.17Q21.79 5.98 21.53 5.98ZM17.04 6.98Q17.64 6.98 18.05 7.39Q18.46 7.8 18.46 8.38L18.46 12.53Q18.46 13.13 18.05 13.52Q17.64 13.92 17.04 13.92L6.94 13.92Q6.34 13.92 5.93 13.52Q5.52 13.13 5.52 12.53L5.52 8.4Q5.52 7.8 5.93 7.39Q6.34 6.98 6.94 6.98L17.04 6.98ZM8.28 16.78Q8.45 16.78 8.59 16.92Q8.74 17.06 8.74 17.23L8.74 17.74Q8.71 17.9 8.58 18.04Q8.45 18.17 8.28 18.17L5.45 18.17Q5.26 18.14 5.15 18.02Q5.04 17.9 5.04 17.71L5.04 17.21Q5.04 17.02 5.16 16.9Q5.28 16.78 5.47 16.78L8.28 16.78ZM18.48 16.78Q18.67 16.78 18.82 16.91Q18.96 17.04 18.96 17.23L18.96 17.69Q18.96 17.88 18.82 18.02Q18.67 18.17 18.48 18.17L15.72 18.17Q15.53 18.14 15.38 18.01Q15.24 17.88 15.24 17.71L15.24 17.23Q15.26 17.06 15.4 16.92Q15.53 16.78 15.7 16.78L18.48 16.78Z" fill="rgba(0,0,0,0.9019607843137255)"></path></g></svg>