<?xml version="1.0" standalone="no"?>
<svg xmlns="http://www.w3.org/2000/svg" width="24" height="24"><rect width="24" height="24" opacity="0"></rect><g mask="url(#hms_mask_0)"><path d="M2.09 18.94Q2.09 19.75 2.5 20.44Q2.9 21.12 3.59 21.53Q4.27 21.94 5.09 21.94L19.08 21.94Q19.9 21.94 20.59 21.53Q21.29 21.12 21.68 20.44Q22.08 19.75 22.08 18.94L22.08 9.12L2.09 9.14L2.09 18.94ZM18.1 2.42L18.1 4.13Q18.1 4.68 17.82 5.14Q17.54 5.59 17.09 5.87Q16.63 6.14 16.08 6.14Q15.55 6.14 15.1 5.87Q14.64 5.59 14.36 5.14Q14.09 4.68 14.09 4.13L14.09 2.42L10.13 2.42L10.13 4.13Q10.13 4.68 9.85 5.14Q9.58 5.59 9.12 5.87Q8.66 6.14 8.11 6.14Q7.58 6.14 7.13 5.87Q6.67 5.59 6.4 5.14Q6.12 4.68 6.12 4.13L6.12 2.42L5.11 2.42Q4.3 2.42 3.6 2.83Q2.9 3.24 2.5 3.92Q2.09 4.61 2.09 5.42L2.09 7.63L22.08 7.63L22.08 5.45Q22.08 4.63 21.68 3.94Q21.29 3.24 20.59 2.83Q19.9 2.42 19.08 2.42ZM8.11 5.14Q8.52 5.14 8.82 4.84Q9.12 4.54 9.12 4.13L9.12 2.04Q9.12 1.63 8.82 1.34Q8.52 1.06 8.11 1.06Q7.7 1.06 7.4 1.34Q7.1 1.63 7.1 2.04L7.1 4.13Q7.1 4.54 7.4 4.84Q7.7 5.14 8.11 5.14ZM16.08 5.14Q16.49 5.14 16.79 4.84Q17.09 4.54 17.09 4.13L17.09 2.04Q17.09 1.63 16.79 1.34Q16.49 1.06 16.08 1.06Q15.67 1.06 15.38 1.34Q15.1 1.63 15.1 2.04L15.1 4.13Q15.1 4.54 15.38 4.84Q15.67 5.14 16.08 5.14Z" fill="rgba(0,0,0,0.9019607843137255)"></path></g><defs><mask id="hms_mask_0"><rect width="24" height="24" fill="#ffffff"></rect><g><path d="M12.65 17.33Q12.05 17.93 11.38 17.93Q11.04 17.93 10.7 17.76Q10.37 17.59 10.1 17.33L7.75 15Q7.54 14.76 7.55 14.46Q7.56 14.16 7.75 13.92Q7.97 13.7 8.28 13.7Q8.59 13.7 8.83 13.92L11.16 16.27Q11.3 16.39 11.39 16.39Q11.47 16.39 11.59 16.27L16.15 11.69Q16.22 11.62 16.3 11.57Q16.51 11.45 16.76 11.47Q17.02 11.5 17.23 11.69Q17.45 11.9 17.45 12.22Q17.45 12.53 17.23 12.74L12.65 17.33Z" fill="#000000"></path></g></mask></defs></svg>