<?xml version="1.0" standalone="no"?>
<svg xmlns="http://www.w3.org/2000/svg" width="24" height="24"><rect width="24" height="24" opacity="0"></rect><g><path d="M20.45 11.66Q20.45 10.92 20.08 10.3Q19.7 9.67 19.08 9.3Q18.46 8.93 17.71 8.93L14.93 8.93Q14.74 8.93 14.6 8.8Q14.47 8.66 14.47 8.47L14.47 2.9Q14.47 2.38 14.21 1.92Q13.94 1.46 13.49 1.2Q13.03 0.94 12.5 0.94Q11.95 0.94 11.51 1.2Q11.06 1.46 10.8 1.92Q10.54 2.38 10.54 2.9L10.54 8.47Q10.54 8.64 10.4 8.78Q10.27 8.93 10.08 8.93L7.2 8.93Q6.46 8.93 5.83 9.3Q5.21 9.67 4.84 10.3Q4.46 10.92 4.46 11.66L4.46 12.19L20.45 12.19L20.45 11.66ZM4.44 17.35Q4.44 18.79 4.24 19.93Q4.03 21.07 3.67 21.67Q3.5 21.96 3.56 22.28Q3.62 22.61 3.86 22.82Q4.1 23.04 4.44 23.04L7.56 23.04Q8.38 22.15 8.81 20.87Q9.24 19.58 9.24 18.43L9.24 15.43Q9.24 15.12 9.46 14.9Q9.67 14.69 9.98 14.69Q10.3 14.69 10.51 14.9Q10.73 15.12 10.73 15.43L10.73 18.43Q10.73 19.63 10.39 20.84Q10.06 22.06 9.43 23.04L12.55 23.04Q13.37 22.15 13.8 20.87Q14.23 19.58 14.23 18.43L14.23 15.43Q14.23 15.12 14.45 14.9Q14.66 14.69 14.98 14.69Q15.29 14.69 15.5 14.9Q15.72 15.12 15.72 15.43L15.72 18.43Q15.72 19.63 15.38 20.84Q15.05 22.06 14.42 23.04L17.71 23.04Q18.46 23.04 19.08 22.67Q19.7 22.3 20.08 21.67Q20.45 21.05 20.45 20.3L20.45 13.68L4.44 13.68Z" fill="rgba(0,0,0,0.9019607843137255)"></path></g></svg>