<?xml version="1.0" standalone="no"?>
<svg xmlns="http://www.w3.org/2000/svg" width="24" height="24"><rect width="24" height="24" opacity="0"></rect><g><path d="M12 1.01Q9 1.01 6.48 2.48Q3.96 3.96 2.48 6.48Q1.01 9 1.01 12Q1.01 15 2.48 17.52Q3.96 20.04 6.48 21.52Q9 22.99 12 22.99Q14.98 22.99 17.51 21.52Q20.04 20.04 21.52 17.51Q22.99 14.98 22.99 12Q22.99 9.02 21.52 6.49Q20.04 3.96 17.51 2.48Q14.98 1.01 12 1.01ZM12 21.46Q9.43 21.46 7.26 20.18Q5.09 18.91 3.82 16.74Q2.54 14.57 2.54 12Q2.54 9.43 3.82 7.26Q5.09 5.09 7.26 3.82Q9.43 2.54 12 2.54Q14.57 2.54 16.74 3.82Q18.91 5.09 20.18 7.26Q21.46 9.43 21.46 12Q21.46 14.57 20.18 16.74Q18.91 18.91 16.74 20.18Q14.57 21.46 12 21.46Z" fill="rgba(0,0,0,0.9019607843137255)"></path><path d="M12.77 5.62Q12.77 5.3 12.54 5.06Q12.31 4.82 12 4.82Q11.69 4.82 11.46 5.06Q11.23 5.3 11.23 5.62L11.23 11.98Q11.23 12.29 11.4 12.46L11.47 12.53L16.73 17.83Q16.97 18.07 17.28 18.07Q17.59 18.07 17.81 17.83Q18.05 17.59 18.05 17.28Q18.05 16.97 17.81 16.73L12.77 11.69L12.77 5.62Z" fill="rgba(0,0,0,0.9019607843137255)"></path></g></svg>