<svg viewBox="0 0 24 24" xmlns="http://www.w3.org/2000/svg" xmlns:xlink="http://www.w3.org/1999/xlink" width="24.000000" height="24.000000" fill="none">
	<path id="矢量 1845" d="M16 10.5C16 11.328 15.552 12 15 12C14.448 12 14 11.328 14 10.5C14 9.672 14.448 9 15 9C15.552 9 16 9.672 16 10.5ZM9 12C9.552 12 10 11.328 10 10.5C10 9.672 9.552 9 9 9C8.448 9 8 9.672 8 10.5C8 11.328 8.448 12 9 12Z" fill="rgb(0,0,0)" fill-rule="nonzero" />
	<path id="矢量 1846" d="M12 1.25C6.063 1.25 1.25 6.063 1.25 12C1.25 17.937 6.063 22.75 12 22.75C17.937 22.75 22.75 17.937 22.75 12C22.75 6.063 17.937 1.25 12 1.25ZM2.75 12C2.74841 10.3586 3.18362 8.74633 4.01095 7.32868C4.83828 5.91103 6.02794 4.73906 7.45783 3.93305C8.88771 3.12705 10.5063 2.71604 12.1475 2.74222C13.7887 2.7684 15.3934 3.23082 16.7968 4.08201C18.2003 4.93321 19.352 6.14252 20.1337 7.58584C20.9154 9.02915 21.2989 10.6545 21.245 12.295C21.2281 12.3011 21.2114 12.3077 21.195 12.315L16.985 14.185L14.136 13.046C13.4569 12.7745 12.7323 12.6349 12.001 12.6349C11.2697 12.6349 10.545 12.7745 9.866 13.046L7.015 14.186L2.805 12.315C2.78858 12.3077 2.7719 12.3011 2.755 12.295C2.75179 12.1967 2.75012 12.0984 2.75 12ZM17.708 15.507L21.026 14.032C20.7763 15.1391 20.3251 16.1908 19.695 17.1348C19.0649 18.0787 18.2667 18.8988 17.34 19.554L17.708 15.507ZM2.974 14.032L6.294 15.507L6.662 19.555C5.73484 18.8999 4.93611 18.0797 4.30566 17.1356C3.67522 16.1915 3.22382 15.1394 2.974 14.032ZM8.25 20.458C8.24948 20.4493 8.24881 20.4407 8.248 20.432L7.798 15.488L10.422 14.438C10.924 14.2372 11.4598 14.134 12.0005 14.134C12.5412 14.134 13.077 14.2372 13.579 14.438L16.203 15.488L15.753 20.432C15.7525 20.4407 15.7522 20.4493 15.752 20.458C14.5707 20.9821 13.2924 21.2519 12 21.25C10.7083 21.2516 9.43071 20.9818 8.25 20.458L8.25 20.458Z" fill="rgb(0,0,0)" fill-rule="nonzero" />
</svg>
