<?xml version="1.0" standalone="no"?>
<svg xmlns="http://www.w3.org/2000/svg" width="24" height="24"><rect width="24" height="24" opacity="0"></rect><g><path d="M9.62 22.01Q11.57 22.01 13.2 21.06Q14.83 20.11 15.78 18.48Q16.73 16.85 16.73 14.93Q16.73 12.53 14.94 10.01Q13.15 7.49 10.9 5.45Q10.37 4.94 9.65 4.94Q8.93 4.94 8.38 5.45Q6.1 7.51 4.32 10.03Q2.54 12.55 2.54 14.93Q2.54 16.85 3.49 18.48Q4.44 20.11 6.07 21.06Q7.7 22.01 9.62 22.01ZM9.62 6.46Q9.79 6.46 9.86 6.53L10.22 6.86Q12.05 8.57 13.64 10.78Q15.24 12.98 15.24 14.93Q15.24 16.44 14.48 17.72Q13.73 19.01 12.43 19.76Q11.14 20.52 9.62 20.52Q8.11 20.52 6.83 19.79Q5.54 19.06 4.79 17.78Q4.03 16.51 4.03 14.93Q4.03 13.01 5.6 10.81Q7.18 8.62 9 6.89L9.38 6.53Q9.53 6.46 9.62 6.46ZM8.71 19.18Q8.98 19.18 9.19 19.02Q9.41 18.86 9.43 18.6Q9.5 18.29 9.34 18.04Q9.17 17.78 8.86 17.71Q7.97 17.52 7.57 17Q7.18 16.49 7.06 16.08L7.06 16.08L7.03 15.98Q6.94 15.72 6.67 15.6Q6.41 15.48 6.14 15.55Q5.86 15.62 5.7 15.88Q5.54 16.13 5.62 16.44Q5.69 16.73 5.94 17.24Q6.19 17.76 6.84 18.36Q7.49 18.96 8.54 19.18L8.71 19.18Z" fill="rgba(0,0,0,0.9019607843137255)"></path></g></svg>