<?xml version="1.0" standalone="no"?>
<svg xmlns="http://www.w3.org/2000/svg" width="24" height="24"><rect width="24" height="24" opacity="0"></rect><g><path d="M23.14 9.89Q22.68 8.09 21.49 6.66Q20.3 5.23 18.61 4.42Q16.92 3.6 15 3.6L9 3.6Q7.08 3.6 5.39 4.42Q3.7 5.23 2.51 6.66Q1.32 8.09 0.86 9.89L23.14 9.89ZM0.7 10.8Q0.6 11.3 0.6 12Q0.6 14.28 1.73 16.21Q2.86 18.14 4.79 19.27Q6.72 20.4 9 20.4L15 20.4Q17.28 20.4 19.21 19.27Q21.14 18.14 22.27 16.21Q23.4 14.28 23.4 12Q23.4 11.3 23.3 10.8L16.2 10.8Q16.18 11.06 16.01 11.23Q15.84 11.4 15.6 11.4L8.35 11.4Q8.11 11.38 7.96 11.21Q7.8 11.04 7.8 10.8L0.7 10.8Z" fill="rgba(0,0,0,0.9019607843137255)"></path></g></svg>