<?xml version="1.0" standalone="no"?>
<svg xmlns="http://www.w3.org/2000/svg" width="24" height="24"><rect width="24" height="24" opacity="0"></rect><g><path d="M14.5 11.71Q13.68 10.54 12.77 9.62Q11.86 8.71 10.78 7.75Q10.58 7.56 10.37 7.39Q9.98 7.06 9.62 7.13Q9.26 7.2 8.95 7.54L5.5 11.11Q5.33 11.28 5.34 11.52Q5.35 11.76 5.52 11.9Q5.69 12.05 5.92 12.02Q6.14 12 6.38 11.86Q6.67 11.66 9.48 9.62L10.56 11.16L9.12 12.22Q10.13 12.55 11.45 13.42L12 13.78Q12.79 14.28 13.2 14.5Q13.61 14.71 14.21 14.88Q14.76 14.33 14.84 13.45Q14.93 12.58 14.5 11.71ZM14.95 10.39Q14.95 11.14 15.48 11.66Q16.01 12.19 16.78 12.19Q17.52 12.19 18.05 11.66Q18.58 11.14 18.58 10.39Q18.58 9.65 18.05 9.11Q17.52 8.57 16.78 8.57Q16.03 8.57 15.49 9.1Q14.95 9.62 14.95 10.39ZM9.74 13.13Q8.18 12.38 7.1 12.48Q6.19 12.55 5.62 12.78Q5.04 13.01 3.84 13.7L3.82 13.73Q3.55 13.9 3.48 14.18Q3.41 14.47 3.55 14.71Q3.67 14.95 3.94 15.04Q4.2 15.12 4.44 15Q4.82 14.81 5.21 14.57Q5.66 14.28 5.99 14.16Q6.31 14.04 6.96 13.97Q7.8 13.92 8.53 14.16Q9.26 14.4 9.94 14.81L10.87 15.41L11.76 16.01Q13.58 17.02 15.31 17.02Q17.28 17.02 18.89 16.27L21.62 14.76Q21.89 14.64 22 14.35Q22.1 14.06 22.01 13.8Q21.89 13.54 21.62 13.44Q21.36 13.34 21.12 13.44L18.89 14.71Q17.26 15.62 15.31 15.62Q14.5 15.62 13.74 15.36Q12.98 15.1 12.24 14.66L9.74 13.13Z" fill="rgba(0,0,0,0.9019607843137255)"></path><path d="M20.52 12.43Q21.48 11.81 23.02 11.76Q23.28 11.74 23.45 11.51Q23.62 11.28 23.57 11.02Q23.54 10.75 23.32 10.58Q23.09 10.42 22.82 10.44Q22.37 10.44 21.37 10.63Q20.38 10.82 19.54 11.38Q19.18 11.66 19.22 12.05Q19.27 12.43 19.66 12.59Q20.04 12.74 20.52 12.43ZM5.11 10.46Q4.42 10.42 3.12 10.68Q1.82 10.94 1.22 11.26Q0.67 11.57 0.58 11.92Q0.48 12.26 0.72 12.48Q0.91 12.65 1.2 12.65Q1.49 12.65 1.78 12.48Q2.16 12.26 3.08 12.06Q4.01 11.86 4.78 11.95Q4.58 11.66 4.66 11.29Q4.73 10.92 5.11 10.46ZM15.43 12.77Q15.5 13.39 15.36 13.97Q15.22 14.54 14.9 15Q15.79 15 16.37 14.94Q16.94 14.88 17.57 14.65Q18.19 14.42 18.96 13.94L15.43 12.77Z" fill="rgba(0,0,0,0.9019607843137255)"></path></g></svg>