<?xml version="1.0" standalone="no"?>
<svg xmlns="http://www.w3.org/2000/svg" width="24" height="24"><rect width="24" height="24" opacity="0"></rect><g><path d="M16.01 1.01Q15.29 1.01 14.77 1.52Q14.26 2.04 14.26 2.76Q14.26 3.48 14.77 4Q15.29 4.51 16.01 4.51Q16.73 4.51 17.24 4Q17.76 3.48 17.76 2.76Q17.76 2.04 17.24 1.52Q16.73 1.01 16.01 1.01ZM14.66 4.87Q14.06 4.73 13.46 4.8Q12.86 4.87 11.66 5.14Q9.91 5.52 9.24 5.64Q8.88 5.74 8.66 6.02L6.31 9.34Q5.9 9.94 6.31 10.25Q6.55 10.42 6.78 10.36Q7.01 10.3 7.32 9.98L9.82 7.61Q11.26 7.56 11.9 7.46Q12.02 7.46 12.07 7.54Q12.12 7.61 12.06 7.7Q12 7.8 11.86 7.82Q11.76 7.82 11.65 7.85Q11.54 7.87 11.4 7.9L10.78 8.02Q10.49 9 10.22 9.65Q9.96 10.3 9.58 11.11L9.38 11.47Q9.22 12.05 9.41 12.74Q9.6 13.44 10.2 13.87L15.55 17.5Q17.23 22.3 17.38 22.58Q17.47 22.82 17.71 22.93Q17.95 23.04 18.19 22.97Q18.38 22.9 18.48 22.72Q18.58 22.54 18.55 22.32L17.69 16.56Q17.64 16.37 17.54 16.2Q17.45 16.03 17.35 15.91L17.3 15.84L13.56 11.83Q14.42 10.75 15.26 9.7L15.36 9.55Q15.72 9.07 15.96 8.58Q16.2 8.09 16.25 7.49Q16.34 6.48 15.89 5.78Q15.43 5.09 14.66 4.87Z" fill="rgba(0,0,0,0.9019607843137255)"></path><path d="M15.86 9.91Q16.22 10.34 16.56 10.8Q16.8 11.11 17.05 11.17Q17.3 11.23 17.54 11.21L17.54 11.21Q18.36 11.11 19.18 11.04Q21.24 10.82 21.36 10.8Q21.6 10.75 21.76 10.6Q21.91 10.44 21.91 10.22Q21.91 10.01 21.76 9.86Q21.6 9.72 21.29 9.7Q20.95 9.65 20.36 9.59Q19.78 9.53 19.13 9.46L17.98 9.34Q17.33 8.23 16.85 7.34L16.82 7.51Q16.75 7.97 16.62 8.41Q16.49 8.86 16.13 9.53L15.86 9.91ZM1.37 15Q1.08 14.93 0.84 15Q0.6 15.07 0.53 15.31Q0.43 15.58 0.53 15.79Q0.62 16.01 0.84 16.13L1.32 16.37Q3.67 17.42 6 18.5Q6.17 18.6 6.54 18.56Q6.91 18.53 7.18 18.26L10.78 15L10.68 14.93Q9.89 14.38 9.55 14.08Q9.22 13.78 9.01 13.38Q8.81 12.98 8.74 12.31L5.93 16.06Z" fill="rgba(0,0,0,0.9019607843137255)"></path></g></svg>