<?xml version="1.0" standalone="no"?>
<svg xmlns="http://www.w3.org/2000/svg" width="24" height="24"><rect width="24" height="24" opacity="0"></rect><g><path d="M18.31 7.08Q17.95 6.79 17.59 6.86Q17.23 6.94 17.11 7.3L17.09 7.34L16.97 7.9Q16.92 8.35 16.85 8.54Q16.8 8.35 16.75 8.23Q16.58 7.73 16.37 7.25Q16.15 6.77 15.72 6.05Q15.02 4.9 13.79 3.7Q12.55 2.5 11.54 1.94Q11.04 1.68 10.7 1.63Q10.37 1.58 10.14 1.79Q9.91 1.99 9.77 2.52L9.72 2.66Q9.53 3.36 9.25 3.96Q8.98 4.56 8.38 5.18Q7.22 6.36 5.9 7.51Q4.13 9.1 3.44 11.09Q2.76 13.08 3.22 15.34Q3.67 17.64 4.92 19.16Q6.17 20.69 7.36 21.4Q8.54 22.1 9.29 22.34Q10.61 22.8 12.23 22.74Q13.85 22.68 14.81 22.25Q15.82 21.82 17 21.02Q18.19 20.23 19.34 18.71Q20.5 17.18 20.86 15.02Q21.14 13.3 20.69 11.6Q20.23 9.91 19.5 8.69Q18.77 7.46 18.31 7.08Z" fill="rgba(0,0,0,0.9019607843137255)"></path></g></svg>