<?xml version="1.0" standalone="no"?>
<svg xmlns="http://www.w3.org/2000/svg" width="24" height="24"><rect width="24" height="24" opacity="0"></rect><g><path d="M12 22.99Q13.92 22.99 15.54 22.04Q17.16 21.1 18.11 19.46Q19.06 17.83 19.06 15.91Q19.06 13.99 18.11 12.36Q17.16 10.73 15.5 9.77L15.5 4.54Q15.5 2.26 13.73 1.38Q11.95 0.5 10.16 1.42Q8.38 2.33 8.38 4.54L8.38 9.84Q6.77 10.8 5.84 12.42Q4.92 14.04 4.92 15.91Q4.92 17.83 5.86 19.45Q6.79 21.07 8.41 22.03Q10.03 22.99 12 22.99ZM11.95 2.47Q12.82 2.47 13.42 3.07Q14.02 3.67 14.02 4.54L14.02 10.68Q15.82 11.59 16.69 12.92Q17.57 14.26 17.57 15.91Q17.57 17.47 16.81 18.74Q16.06 20.02 14.77 20.76Q13.49 21.5 12 21.5Q10.46 21.5 9.19 20.76Q7.92 20.02 7.18 18.73Q6.43 17.45 6.43 15.91Q6.43 14.3 7.24 12.98Q8.04 11.66 9.89 10.73L9.89 4.54Q9.89 3.7 10.48 3.08Q11.06 2.47 11.95 2.47ZM12 20.45Q13.25 20.45 14.29 19.84Q15.34 19.22 15.96 18.19Q16.58 17.16 16.58 15.91Q16.58 15.46 16.21 15.26Q15.84 15.07 15.47 15.26Q15.1 15.46 15.1 15.91Q15.1 16.73 14.68 17.44Q14.26 18.14 13.55 18.55Q12.84 18.96 12 18.96Q11.52 18.96 11.33 19.33Q11.14 19.7 11.33 20.08Q11.52 20.45 12 20.45ZM10.97 7.15Q11.42 7.15 11.6 6.78Q11.78 6.41 11.6 6.02Q11.42 5.64 10.97 5.64L9.31 5.64Q8.86 5.64 8.68 6.02Q8.5 6.41 8.68 6.78Q8.86 7.15 9.31 7.15L10.97 7.15ZM10.97 9.41Q11.42 9.41 11.62 9.02Q11.81 8.64 11.62 8.27Q11.42 7.9 10.97 7.9L9.31 7.9Q8.86 7.9 8.66 8.28Q8.47 8.66 8.66 9.04Q8.86 9.41 9.31 9.41L10.97 9.41Z" fill="rgba(0,0,0,0.9019607843137255)"></path></g></svg>