<svg viewBox="0 0 24 24" xmlns="http://www.w3.org/2000/svg" xmlns:xlink="http://www.w3.org/1999/xlink" width="24.000000" height="24.000000" fill="none">
	<path id="矢量 1843" d="M6.73597 2.24597L17.216 2.24597C18.0039 2.24632 18.7779 2.45401 19.4601 2.84818C20.1424 3.24235 20.7089 3.80912 21.1028 4.49155C21.4966 5.17398 21.704 5.94804 21.704 6.73597L21.704 17.216C21.7036 18.0039 21.4959 18.7779 21.1018 19.4601C20.7076 20.1424 20.1408 20.7089 19.4584 21.1028C18.776 21.4966 18.0019 21.704 17.214 21.704L6.73597 21.704C5.94781 21.704 5.17354 21.4965 4.49097 21.1024C3.8084 20.7083 3.2416 20.1415 2.84752 19.459C2.45344 18.7764 2.24597 18.0021 2.24597 17.214L2.24597 6.73597C2.24597 5.94781 2.45344 5.17354 2.84752 4.49097C3.2416 3.80841 3.80841 3.2416 4.49097 2.84752C5.17354 2.45344 5.94781 2.24597 6.73597 2.24597L6.73597 2.24597ZM7.10997 8.12997L7.10997 15.39C7.10997 15.5264 7.15316 15.6593 7.23335 15.7697C7.31353 15.88 7.4266 15.9622 7.55635 16.0044C7.68609 16.0465 7.82585 16.0465 7.9556 16.0044C8.08534 15.9622 8.19841 15.88 8.2786 15.7697C8.35878 15.6593 8.40197 15.5264 8.40197 15.39L8.40197 8.12997C8.40197 7.99355 8.35878 7.86063 8.2786 7.75026C8.19841 7.63989 8.08534 7.55774 7.9556 7.51559C7.82585 7.47343 7.68609 7.47343 7.55635 7.51559C7.4266 7.55774 7.31353 7.63989 7.23335 7.75026C7.15316 7.86063 7.10997 7.99355 7.10997 8.12997ZM10.106 8.98197L10.106 14.54C10.106 15.366 10.776 16.036 11.602 16.036L13.194 16.036C14.574 16.036 15.614 15.652 16.334 14.886C17.014 14.146 17.364 13.1 17.364 11.762C17.364 10.408 17.028 9.36797 16.358 8.64797C15.638 7.86997 14.598 7.48397 13.22 7.48397L11.602 7.48397C11.3391 7.48397 11.081 7.55322 10.8534 7.68473C10.6258 7.81625 10.4369 8.00539 10.3057 8.23313C10.1745 8.46086 10.1056 8.71914 10.106 8.98197L10.106 8.98197ZM11.41 8.59797L12.98 8.59797C14.056 8.59797 14.848 8.84997 15.352 9.36797C15.832 9.86997 16.082 10.66 16.082 11.762C16.082 12.838 15.832 13.63 15.342 14.144C14.838 14.658 14.032 14.922 12.956 14.922L11.41 14.922L11.41 8.59797L11.41 8.59797Z" fill="rgb(0,0,0)" fill-rule="nonzero" />
</svg>
