<?xml version="1.0" standalone="no"?>
<svg xmlns="http://www.w3.org/2000/svg" width="24" height="24"><rect width="24" height="24" opacity="0"></rect><g><path d="M9.19 0.6Q8.45 0.62 7.91 1.07Q7.37 1.51 7.18 2.21Q6.94 3.34 6.22 4.25Q5.3 4.92 4.78 5.94Q4.25 6.96 4.25 8.14L4.25 15.67Q4.27 16.82 4.8 17.81Q5.33 18.79 6.22 19.46Q6.62 19.94 6.85 20.44Q7.08 20.93 7.18 21.48Q7.37 22.2 7.92 22.66Q8.47 23.11 9.19 23.11L14.26 23.11Q14.98 23.11 15.54 22.66Q16.1 22.2 16.27 21.5Q16.56 20.47 17.33 19.39Q18.22 18.74 18.73 17.74Q19.25 16.73 19.25 15.58L19.25 14.06Q19.32 14.02 19.39 13.97Q19.56 13.87 19.66 13.7Q19.75 13.54 19.75 13.37L19.75 10.37Q19.75 10.2 19.67 10.04Q19.58 9.89 19.46 9.77Q19.37 9.7 19.25 9.65L19.25 8.14L19.25 8.04Q19.22 6.89 18.71 5.92Q18.19 4.94 17.33 4.32Q16.58 3.29 16.25 2.14Q16.06 1.46 15.5 1.03Q14.95 0.6 14.26 0.6L9.19 0.6ZM14.47 4.85Q15.36 4.85 16.1 5.29Q16.85 5.74 17.29 6.49Q17.74 7.25 17.74 8.14L17.74 15.65Q17.74 16.51 17.29 17.24Q16.85 17.98 16.09 18.41Q15.34 18.84 14.47 18.84L8.95 18.84Q8.09 18.84 7.34 18.4Q6.6 17.95 6.17 17.21Q5.74 16.46 5.74 15.58L5.74 8.14L5.74 8.04Q5.76 7.18 6.2 6.44Q6.65 5.71 7.39 5.28Q8.14 4.85 9.02 4.85L14.47 4.85Z" fill="rgba(0,0,0,0.9019607843137255)"></path><path d="M8.98 5.59Q8.3 5.59 7.74 5.93Q7.18 6.26 6.84 6.84Q6.5 7.42 6.5 8.11L6.5 15.6Q6.5 16.3 6.84 16.86Q7.18 17.42 7.74 17.76Q8.3 18.1 8.98 18.1L14.5 18.1Q15.17 18.1 15.74 17.76Q16.32 17.42 16.66 16.85Q16.99 16.27 16.99 15.6L16.99 8.11Q16.99 7.44 16.66 6.85Q16.32 6.26 15.74 5.93Q15.17 5.59 14.5 5.59L8.98 5.59Z" fill="rgba(0,0,0,0.9019607843137255)"></path></g></svg>