<?xml version="1.0" standalone="no"?>
<svg xmlns="http://www.w3.org/2000/svg" width="24" height="24"><rect width="24" height="24" opacity="0"></rect><g><path d="M12 3.26Q9.62 3.26 7.61 4.44Q5.59 5.62 4.42 7.62Q3.24 9.62 3.24 12Q3.24 14.38 4.42 16.39Q5.59 18.41 7.61 19.58Q9.62 20.76 12 20.76Q14.38 20.76 16.39 19.58Q18.41 18.41 19.58 16.39Q20.76 14.38 20.76 12Q20.76 9.62 19.58 7.62Q18.41 5.62 16.39 4.44Q14.38 3.26 12 3.26ZM15.43 15Q15.7 15 15.88 15.19Q16.06 15.38 16.06 15.65Q16.06 15.91 15.86 16.1Q15.67 16.3 15.41 16.3L10.39 16.3Q10.13 16.3 9.94 16.1Q9.74 15.91 9.74 15.65L9.74 7.3Q9.74 7.03 9.94 6.84Q10.13 6.65 10.39 6.65Q10.66 6.65 10.85 6.84Q11.04 7.03 11.04 7.3L11.04 15L15.43 15Z" fill="rgba(0,0,0,0.9019607843137255)"></path></g></svg>