<?xml version="1.0" standalone="no"?>
<svg xmlns="http://www.w3.org/2000/svg" width="24" height="24"><rect width="24" height="24" opacity="0"></rect><g><path d="M13.13 2.59Q13.13 2.14 12.79 1.81Q12.46 1.49 12 1.49Q11.54 1.49 11.22 1.81Q10.9 2.14 10.9 2.59L10.9 6.05Q8.5 6.31 6.5 7.68Q4.51 9.05 3.37 11.16Q2.23 13.27 2.23 15.74L21.77 15.74Q21.77 13.27 20.63 11.16Q19.49 9.05 17.51 7.69Q15.53 6.34 13.13 6.05L13.13 2.59Z" fill="rgba(0,0,0,0.9019607843137255)"></path><path d="M12 22.49Q12.31 22.49 12.53 22.27Q12.74 22.06 12.74 21.74L12.74 21.17Q12.74 20.86 12.53 20.63Q12.31 20.4 12 20.4Q11.69 20.4 11.47 20.63Q11.26 20.86 11.26 21.17L11.26 21.74Q11.26 22.06 11.47 22.27Q11.69 22.49 12 22.49ZM7.1 19.66Q7.32 19.66 7.51 19.54L8.02 19.2Q8.28 19.01 8.34 18.71Q8.4 18.41 8.23 18.17Q8.06 17.9 7.75 17.83Q7.44 17.76 7.18 17.95L6.67 18.29Q6.41 18.46 6.36 18.76Q6.31 19.06 6.48 19.32Q6.6 19.49 6.76 19.57Q6.91 19.66 7.1 19.66ZM16.9 19.66Q17.06 19.66 17.21 19.6Q17.35 19.54 17.47 19.42Q17.47 19.39 17.48 19.37Q17.5 19.34 17.52 19.32L17.57 19.25Q17.69 18.98 17.62 18.72Q17.54 18.46 17.3 18.29L16.8 17.95Q16.54 17.78 16.24 17.84Q15.94 17.9 15.77 18.17Q15.6 18.43 15.66 18.73Q15.72 19.03 15.98 19.2L16.49 19.54Q16.56 19.61 16.67 19.63Q16.78 19.66 16.9 19.66ZM9 16.49Q9 17.3 9.41 17.99Q9.82 18.67 10.5 19.08Q11.18 19.49 12 19.49Q12.82 19.49 13.5 19.08Q14.18 18.67 14.59 17.99Q15 17.3 15 16.49L9 16.49Z" fill="rgba(0,0,0,0.9019607843137255)"></path></g></svg>