<?xml version="1.0" standalone="no"?>
<svg xmlns="http://www.w3.org/2000/svg" width="24" height="24"><rect width="24" height="24" opacity="0"></rect><g><path d="M21.77 17.26Q21.77 14.59 20.46 12.35Q19.15 10.1 16.91 8.8Q14.66 7.49 12 7.49Q9.34 7.49 7.09 8.8Q4.85 10.1 3.54 12.35Q2.23 14.59 2.23 17.26L21.77 17.26ZM12 10.51Q12.48 10.51 12.8 10.18Q13.13 9.84 13.13 9.38L13.13 4.13Q13.13 3.65 12.8 3.32Q12.48 3 12 3Q11.54 3 11.21 3.32Q10.87 3.65 10.87 4.13L10.87 9.38Q10.87 9.84 11.21 10.18Q11.54 10.51 12 10.51Z" fill="rgba(0,0,0,0.9019607843137255)"></path><path d="M9 18Q9 18.82 9.41 19.5Q9.82 20.18 10.5 20.59Q11.18 21 12 21Q12.82 21 13.5 20.59Q14.18 20.18 14.59 19.5Q15 18.82 15 18L9 18Z" fill="rgba(0,0,0,0.9019607843137255)"></path></g></svg>