<?xml version="1.0" standalone="no"?>
<svg xmlns="http://www.w3.org/2000/svg" width="24" height="24"><rect width="24" height="24" opacity="0"></rect><g><path d="M16.03 21.96Q18.53 21 20.29 19.01Q22.06 17.02 22.73 14.42Q22.78 14.18 22.7 13.96Q22.63 13.73 22.46 13.56Q22.3 13.39 22.07 13.33Q21.84 13.27 21.58 13.34Q19.92 13.82 18.24 13.68Q16.56 13.54 15.02 12.77Q13.46 12 12.31 10.75Q11.16 9.5 10.56 7.9Q10.06 6.58 9.97 5.18Q9.89 3.79 10.22 2.45Q10.27 2.21 10.2 1.98Q10.13 1.75 9.96 1.58Q9.79 1.42 9.56 1.36Q9.34 1.3 9.1 1.37Q8.74 1.46 8.26 1.63Q5.5 2.69 3.67 4.96Q1.85 7.22 1.38 10.08Q0.91 12.94 1.97 15.7Q3.02 18.46 5.29 20.26Q7.56 22.06 10.42 22.54Q13.27 23.02 16.03 21.96Z" fill="rgba(0,0,0,0.9019607843137255)"></path><path d="M20.54 9Q20.86 9 21.08 8.78Q21.31 8.57 21.31 8.26Q21.31 7.94 21.08 7.72Q20.86 7.49 20.54 7.49L17.74 7.49L21.1 3.74Q21.26 3.58 21.3 3.36Q21.34 3.14 21.24 2.93Q21.12 2.74 20.94 2.62Q20.76 2.5 20.54 2.5L16.03 2.5Q15.72 2.5 15.5 2.71Q15.29 2.93 15.29 3.24Q15.29 3.55 15.5 3.77Q15.72 3.98 16.03 3.98L18.86 3.98L15.48 7.73Q15.26 7.97 15.29 8.27Q15.31 8.57 15.53 8.78Q15.74 9 16.06 9L20.54 9Z" fill="rgba(0,0,0,0.9019607843137255)"></path></g></svg>