<?xml version="1.0" standalone="no"?>
<svg xmlns="http://www.w3.org/2000/svg" width="24" height="24"><rect width="24" height="24" opacity="0"></rect><g mask="url(#hms_mask_0)"><path d="M12 1.01Q9.02 1.01 6.49 2.48Q3.96 3.96 2.48 6.49Q1.01 9.02 1.01 12Q1.01 14.98 2.48 17.51Q3.96 20.04 6.49 21.52Q9.02 22.99 12 22.99Q14.98 22.99 17.51 21.52Q20.04 20.04 21.52 17.51Q22.99 14.98 22.99 12Q22.99 9.02 21.52 6.49Q20.04 3.96 17.51 2.48Q14.98 1.01 12 1.01Z" fill="rgba(0,0,0,0.9019607843137255)"></path></g><defs><mask id="hms_mask_0"><rect width="24" height="24" fill="#ffffff"></rect><g><path d="M18.05 14.11Q18.26 14.42 18.12 14.76Q17.11 16.66 15.24 17.58Q13.37 18.5 11.33 18.19Q9.94 17.98 8.76 17.21Q7.58 16.44 6.82 15.26Q6.05 14.09 5.83 12.7Q5.57 10.97 6.18 9.38Q6.79 7.8 8.09 6.7Q9.38 5.59 11.09 5.26Q11.26 5.23 11.41 5.3Q11.57 5.38 11.66 5.52Q11.78 5.64 11.78 5.82Q11.78 6 11.66 6.14Q11.14 6.96 10.93 7.92Q10.73 8.88 10.9 9.86Q11.14 11.33 12.14 12.42Q13.15 13.51 14.57 13.92Q16.01 14.35 17.42 13.92Q17.59 13.87 17.76 13.93Q17.93 13.99 18.05 14.11Z" fill="#000000"></path></g></mask></defs></svg>