<?xml version="1.0" standalone="no"?>
<svg xmlns="http://www.w3.org/2000/svg" width="24" height="24"><rect width="24" height="24" opacity="0"></rect><g><path d="M12 4.82Q10.92 4.82 10.01 5.35Q9.1 5.88 8.57 6.79Q8.04 7.7 8.04 8.78Q8.04 9.86 8.57 10.78Q9.1 11.69 10.01 12.23Q10.92 12.77 12 12.77Q13.08 12.77 13.99 12.23Q14.9 11.69 15.43 10.78Q15.96 9.86 15.96 8.78Q15.96 7.7 15.43 6.79Q14.9 5.88 13.99 5.35Q13.08 4.82 12 4.82ZM11.33 13.78Q9.65 13.78 8 14.62Q6.36 15.46 5.3 16.91Q4.25 18.36 4.25 20.09Q4.25 20.93 4.85 21.53Q5.45 22.13 6.29 22.13L17.69 22.13Q18.55 22.13 19.15 21.53Q19.75 20.93 19.75 20.09Q19.75 18.36 18.7 16.91Q17.64 15.46 16 14.62Q14.35 13.78 12.67 13.78L11.33 13.78Z" fill="rgba(0,0,0,0.9019607843137255)"></path><path d="M17.28 8.78Q17.28 9 17.23 9.34L17.21 9.6Q18.46 9.24 19.25 8.2Q20.04 7.15 20.04 5.83Q20.04 4.75 19.51 3.84Q18.98 2.93 18.07 2.39Q17.16 1.85 16.08 1.85Q15.07 1.85 14.21 2.32Q13.34 2.78 12.79 3.6Q14.04 3.79 15.07 4.52Q16.1 5.26 16.69 6.37Q17.28 7.49 17.28 8.78ZM16.85 10.82Q16.61 11.42 16.21 11.94Q15.82 12.46 15.29 12.89Q16.8 13.34 18.01 14.32Q19.22 15.29 19.98 16.56Q20.74 17.83 20.95 19.18L21.77 19.18Q22.63 19.18 23.23 18.58Q23.83 17.98 23.83 17.14Q23.83 15.41 22.8 13.97Q21.77 12.53 20.15 11.69Q18.53 10.85 16.85 10.82ZM6.72 8.78Q6.72 7.49 7.31 6.37Q7.9 5.26 8.93 4.52Q9.96 3.79 11.21 3.6Q10.66 2.78 9.79 2.32Q8.93 1.85 7.92 1.85Q6.84 1.85 5.93 2.39Q5.02 2.93 4.49 3.84Q3.96 4.75 3.96 5.83Q3.96 7.15 4.75 8.2Q5.54 9.24 6.79 9.6L6.77 9.34Q6.72 9 6.72 8.78ZM7.15 10.82Q5.47 10.85 3.85 11.69Q2.23 12.53 1.2 13.97Q0.17 15.41 0.17 17.14Q0.17 17.98 0.77 18.58Q1.37 19.18 2.23 19.18L3.05 19.18Q3.26 17.83 4.02 16.56Q4.78 15.29 5.99 14.32Q7.2 13.34 8.71 12.89Q8.18 12.46 7.79 11.94Q7.39 11.42 7.15 10.82Z" fill="rgba(0,0,0,0.9019607843137255)"></path></g></svg>