<?xml version="1.0" standalone="no"?>
<svg xmlns="http://www.w3.org/2000/svg" width="24" height="24"><rect width="24" height="24" opacity="0"></rect><g><path d="M18.24 7.75Q18.46 7.75 18.6 7.9Q18.74 8.04 18.74 8.26L18.74 10.25Q18.74 10.46 18.6 10.61Q18.46 10.75 18.24 10.75L18.24 20.5Q18.24 21.31 17.83 22Q17.42 22.68 16.74 23.09Q16.06 23.5 15.24 23.5L8.26 23.5Q7.44 23.5 6.76 23.09Q6.07 22.68 5.66 22Q5.26 21.31 5.26 20.5L5.26 3.5Q5.26 2.69 5.66 2Q6.07 1.32 6.76 0.91Q7.44 0.5 8.26 0.5L15.24 0.5Q16.06 0.5 16.75 0.91Q17.45 1.32 17.84 2Q18.24 2.69 18.24 3.5L18.24 7.75ZM16.75 3.5Q16.75 2.88 16.31 2.44Q15.86 1.99 15.24 1.99L8.26 1.99Q7.63 1.99 7.19 2.44Q6.74 2.88 6.74 3.5L6.74 20.5Q6.74 21.12 7.19 21.55Q7.63 21.98 8.26 21.98L15.24 21.98Q15.86 21.98 16.31 21.55Q16.75 21.12 16.75 20.5L16.75 3.5Z" fill="rgba(0,0,0,0.9019607843137255)"></path><path d="M8.47 3Q8.14 3 7.94 3.19Q7.75 3.38 7.75 3.72L7.75 20.28Q7.75 20.62 7.94 20.81Q8.14 21 8.47 21L15.02 21Q15.36 21 15.55 20.81Q15.74 20.62 15.74 20.28L15.74 3.72Q15.74 3.38 15.55 3.19Q15.36 3 15.02 3L8.47 3Z" fill="rgba(0,0,0,0.9019607843137255)"></path></g></svg>