<?xml version="1.0" standalone="no"?>
<svg xmlns="http://www.w3.org/2000/svg" width="24" height="24"><rect width="24" height="24" opacity="0"></rect><g><path d="M19.51 14.26Q20.09 13.92 20.47 13.27Q20.83 12.65 20.82 11.95Q20.81 11.26 20.47 10.66Q20.14 10.06 19.51 9.7L7.94 3.05Q7.37 2.71 6.62 2.71Q5.9 2.71 5.3 3.06Q4.7 3.41 4.36 4.01Q4.01 4.61 4.01 5.33L4.01 18.6Q4.01 19.34 4.34 19.92Q4.7 20.54 5.3 20.89Q5.9 21.24 6.61 21.25Q7.32 21.26 7.94 20.9L19.51 14.26Z" fill="rgba(0,0,0,0.9019607843137255)"></path></g></svg>