<?xml version="1.0" standalone="no"?>
<svg xmlns="http://www.w3.org/2000/svg" width="24" height="24"><rect width="24" height="24" opacity="0"></rect><g><path d="M12 3.26Q9.62 3.26 7.61 4.44Q5.59 5.62 4.42 7.62Q3.24 9.62 3.24 12Q3.24 14.38 4.42 16.39Q5.59 18.41 7.61 19.58Q9.62 20.76 12 20.76Q14.38 20.76 16.39 19.58Q18.41 18.41 19.58 16.39Q20.76 14.38 20.76 12Q20.76 9.62 19.58 7.62Q18.41 5.62 16.39 4.44Q14.38 3.26 12 3.26ZM15.94 15.91Q16.08 16.13 16.03 16.39Q15.98 16.66 15.77 16.82Q15.5 16.97 15.26 16.93Q15.02 16.9 14.88 16.66L12.05 12.67L10.49 12.67L10.49 16.3Q10.49 16.56 10.28 16.75Q10.08 16.94 9.82 16.94Q9.55 16.94 9.36 16.75Q9.17 16.56 9.17 16.3L9.17 8.33Q9.17 7.94 9.44 7.67Q9.72 7.39 10.13 7.39L12.5 7.39Q13.22 7.39 13.84 7.74Q14.45 8.09 14.8 8.7Q15.14 9.31 15.14 10.03Q15.14 10.85 14.7 11.51Q14.26 12.17 13.51 12.48L15.94 15.91ZM10.49 11.38L12.5 11.38Q13.06 11.38 13.45 10.98Q13.85 10.58 13.85 10.03Q13.85 9.48 13.45 9.08Q13.06 8.69 12.5 8.69L10.49 8.69L10.49 9.84Z" fill="rgba(0,0,0,0.9019607843137255)"></path></g></svg>