<?xml version="1.0" standalone="no"?>
<svg xmlns="http://www.w3.org/2000/svg" width="24" height="24"><rect width="24" height="24" opacity="0"></rect><g mask="url(#hms_mask_0)"><path d="M21.17 5.47Q21.5 5.14 21.37 4.74Q21.24 4.34 20.84 4.21Q20.45 4.08 20.11 4.42L18.55 5.95Q17.23 4.73 15.54 4.04Q13.85 3.36 12 3.36Q9.36 3.36 7.12 4.67Q4.87 5.98 3.56 8.22Q2.26 10.46 2.26 13.13Q2.26 15.77 3.56 18.01Q4.87 20.26 7.12 21.56Q9.36 22.87 12 22.87Q14.64 22.87 16.88 21.56Q19.13 20.26 20.44 18.01Q21.74 15.77 21.74 13.13Q21.74 11.42 21.18 9.86Q20.62 8.3 19.61 7.03L21.17 5.47ZM14.52 2.62Q14.98 2.62 15.17 2.24Q15.36 1.87 15.17 1.5Q14.98 1.13 14.52 1.13L9.46 1.13Q9 1.13 8.81 1.5Q8.62 1.87 8.81 2.24Q9 2.62 9.46 2.62L14.52 2.62Z" fill="rgba(0,0,0,0.9019607843137255)"></path></g><defs><mask id="hms_mask_0"><rect width="24" height="24" fill="#ffffff"></rect><g><path d="M11.26 8.06Q11.26 7.61 11.63 7.42Q12 7.22 12.37 7.42Q12.74 7.61 12.74 8.06L12.74 13.13Q12.74 13.58 12.37 13.78Q12 13.97 11.63 13.78Q11.26 13.58 11.26 13.13L11.26 8.06Z" fill="#000000"></path></g></mask></defs></svg>