<?xml version="1.0" standalone="no"?>
<svg xmlns="http://www.w3.org/2000/svg" width="24" height="24"><rect width="24" height="24" opacity="0"></rect><g><path d="M12 6.5Q13.49 6.5 14.75 7.25Q16.01 7.99 16.75 9.25Q17.5 10.51 17.5 12Q17.5 13.49 16.75 14.75Q16.01 16.01 14.75 16.75Q13.49 17.5 12 17.5Q10.51 17.5 9.24 16.75Q7.97 16.01 7.24 14.75Q6.5 13.49 6.5 12Q6.5 10.51 7.24 9.25Q7.97 7.99 9.24 7.25Q10.51 6.5 12 6.5ZM12 4.99Q10.1 4.99 8.5 5.94Q6.89 6.89 5.94 8.5Q4.99 10.1 4.99 12Q4.99 13.9 5.94 15.5Q6.89 17.11 8.5 18.06Q10.1 19.01 12 19.01Q13.9 19.01 15.5 18.06Q17.11 17.11 18.06 15.5Q19.01 13.9 19.01 12Q19.01 10.1 18.06 8.5Q17.11 6.89 15.5 5.94Q13.9 4.99 12 4.99ZM11.98 3.55Q12.31 3.55 12.55 3.31Q12.79 3.07 12.79 2.74Q12.79 2.4 12.55 2.16Q12.31 1.92 11.98 1.92Q11.64 1.92 11.4 2.16Q11.16 2.4 11.16 2.74Q11.16 3.07 11.4 3.31Q11.64 3.55 11.98 3.55ZM11.98 22.08Q12.31 22.08 12.55 21.84Q12.79 21.6 12.79 21.26Q12.79 20.93 12.55 20.69Q12.31 20.45 11.98 20.45Q11.64 20.45 11.4 20.69Q11.16 20.93 11.16 21.26Q11.16 21.6 11.4 21.84Q11.64 22.08 11.98 22.08ZM17.95 6.02Q18.19 6.26 18.53 6.26Q18.86 6.26 19.1 6.02Q19.34 5.78 19.34 5.45Q19.34 5.11 19.1 4.87Q18.86 4.63 18.53 4.63Q18.19 4.63 17.95 4.87Q17.71 5.11 17.71 5.45Q17.71 5.78 17.95 6.02ZM4.85 19.13Q5.09 19.37 5.42 19.37Q5.76 19.37 6 19.13Q6.26 18.89 6.26 18.55Q6.26 18.22 6 17.98Q5.76 17.71 5.42 17.71Q5.09 17.71 4.85 17.98Q4.61 18.22 4.61 18.55Q4.61 18.89 4.85 19.13ZM20.42 12Q20.4 12.34 20.65 12.59Q20.9 12.84 21.24 12.82Q21.58 12.82 21.82 12.56Q22.06 12.31 22.06 12Q22.06 11.66 21.82 11.42Q21.58 11.18 21.24 11.18Q20.9 11.16 20.65 11.41Q20.4 11.66 20.42 12ZM1.9 12Q1.9 12.31 2.15 12.56Q2.4 12.82 2.71 12.82Q3.05 12.84 3.3 12.59Q3.55 12.34 3.53 12Q3.55 11.66 3.3 11.41Q3.05 11.16 2.71 11.18Q2.4 11.18 2.15 11.42Q1.9 11.66 1.9 12ZM17.95 17.98Q17.71 18.22 17.71 18.55Q17.71 18.89 17.95 19.13Q18.19 19.37 18.53 19.37Q18.86 19.37 19.1 19.13Q19.34 18.89 19.34 18.55Q19.34 18.22 19.1 17.98Q18.86 17.71 18.53 17.71Q18.19 17.71 17.95 17.98ZM4.85 4.87Q4.61 5.11 4.61 5.45Q4.61 5.78 4.85 6.02Q5.09 6.26 5.42 6.26Q5.76 6.26 6 6.02Q6.26 5.78 6.26 5.45Q6.26 5.11 6 4.87Q5.76 4.63 5.42 4.63Q5.09 4.63 4.85 4.87Z" fill="rgba(0,0,0,0.9019607843137255)"></path></g></svg>