<?xml version="1.0" standalone="no"?>
<svg xmlns="http://www.w3.org/2000/svg" width="24" height="24"><rect width="24" height="24" opacity="0"></rect><g><path d="M7.01 0.98Q6.38 0.98 6.13 1.49Q5.88 1.99 6.13 2.48Q6.38 2.98 7.01 2.98L11.52 2.98L10.8 4.27Q9.53 4.32 8.33 4.49Q7.13 4.66 6.29 5.02Q5.21 5.54 4.61 6.49Q4.01 7.44 4.01 8.64L4.01 17.64Q4.01 18.7 4.66 19.5Q5.3 20.3 6.31 20.57L4.87 23.02L7.66 23.02L8.66 20.64L15.36 20.64L16.37 23.02L19.18 23.02L17.76 20.54Q18.72 20.28 19.36 19.48Q19.99 18.67 19.99 17.64L19.99 8.64Q19.99 7.44 19.39 6.49Q18.79 5.54 17.71 5.02Q16.99 4.68 15.38 4.48Q13.78 4.27 12.53 4.25L13.27 2.98L16.99 2.98Q17.62 2.98 17.87 2.47Q18.12 1.97 17.87 1.48Q17.62 0.98 16.99 0.98L7.01 0.98ZM17.76 8.23Q18.07 8.23 18.29 8.45Q18.5 8.66 18.5 8.98L18.5 13.49Q18.5 13.8 18.29 14.02Q18.07 14.23 17.76 14.23L6.24 14.23Q5.93 14.23 5.71 14.02Q5.5 13.8 5.5 13.49L5.5 8.98Q5.5 8.66 5.71 8.45Q5.93 8.23 6.24 8.23L17.76 8.23ZM8.76 17.52Q8.76 18.1 8.3 18.55Q7.85 19.01 7.27 18.98Q6.62 18.98 6.19 18.55Q5.76 18.12 5.76 17.52Q5.71 16.92 6.17 16.45Q6.62 15.98 7.27 15.98Q7.9 15.98 8.33 16.45Q8.76 16.92 8.76 17.52ZM15.24 17.52Q15.24 16.9 15.7 16.44Q16.15 15.98 16.75 15.98Q17.38 15.98 17.82 16.44Q18.26 16.9 18.26 17.52Q18.26 18.12 17.81 18.56Q17.35 19.01 16.75 18.98Q16.18 19.01 15.71 18.55Q15.24 18.1 15.24 17.52Z" fill="rgba(0,0,0,0.9019607843137255)"></path></g></svg>