<?xml version="1.0" standalone="no"?>
<svg xmlns="http://www.w3.org/2000/svg" width="24" height="24"><rect width="24" height="24" opacity="0"></rect><g><path d="M4.63 22.44Q4.85 22.66 5.16 22.66Q5.47 22.66 5.69 22.44L7.25 20.88Q7.46 20.66 7.46 20.35Q7.46 20.04 7.25 19.82Q7.03 19.61 6.72 19.61Q6.41 19.61 6.19 19.82L4.63 21.38Q4.39 21.6 4.39 21.91Q4.39 22.22 4.63 22.44ZM19.34 22.42Q19.56 22.2 19.56 21.89Q19.56 21.58 19.34 21.36L17.81 19.8Q17.59 19.58 17.28 19.58Q16.97 19.58 16.75 19.8Q16.51 20.02 16.51 20.33Q16.51 20.64 16.75 20.88L18.29 22.42Q18.5 22.63 18.82 22.63Q19.13 22.63 19.34 22.42ZM4.61 9.98Q5.57 8.57 6.96 7.68Q7.22 7.49 7.27 7.18Q7.32 6.86 7.15 6.62Q6.96 6.36 6.66 6.3Q6.36 6.24 6.12 6.41Q4.46 7.49 3.36 9.14Q3.19 9.38 3.24 9.7Q3.29 10.01 3.55 10.18Q3.79 10.34 4.12 10.28Q4.44 10.22 4.61 9.98ZM19.39 9.98Q19.56 10.25 19.88 10.31Q20.21 10.37 20.45 10.18Q20.71 10.01 20.76 9.7Q20.81 9.38 20.64 9.14Q19.51 7.51 17.88 6.41Q17.64 6.24 17.34 6.3Q17.04 6.36 16.85 6.62Q16.68 6.86 16.73 7.18Q16.78 7.49 17.04 7.68Q18.43 8.57 19.39 9.98ZM12 6.98Q9.82 6.98 7.94 8.08Q6.07 9.17 4.98 11.04Q3.89 12.91 3.89 15.1Q3.89 17.28 4.98 19.14Q6.07 21 7.93 22.09Q9.79 23.18 12 23.18Q14.18 23.18 16.04 22.09Q17.9 21 19 19.14Q20.09 17.28 20.09 15.1Q20.09 12.89 19 11.03Q17.9 9.17 16.06 8.08Q14.21 6.98 12 6.98ZM16.03 18.07Q16.25 18.29 16.25 18.6Q16.25 18.91 16.03 19.13Q15.82 19.34 15.5 19.34Q15.19 19.34 14.98 19.13L11.47 15.62Q11.23 15.38 11.23 15.05L11.23 11.14Q11.23 10.82 11.46 10.61Q11.69 10.39 12 10.39Q12.31 10.39 12.53 10.61Q12.74 10.82 12.74 11.14L12.74 14.78L16.03 18.07Z" fill="rgba(0,0,0,0.9019607843137255)"></path><path d="M12.43 6.34Q12.65 6.34 12.79 6.19Q12.94 6.05 12.94 5.83Q12.94 5.62 12.79 5.47Q12.65 5.33 12.43 5.33L11.95 5.33L12.82 4.27Q12.91 4.18 12.92 4.02Q12.94 3.86 12.89 3.74Q12.82 3.62 12.7 3.54Q12.58 3.46 12.43 3.46L10.9 3.46Q10.7 3.46 10.55 3.6Q10.39 3.74 10.39 3.96Q10.39 4.18 10.55 4.32Q10.7 4.46 10.9 4.46L11.38 4.46L10.51 5.52Q10.42 5.62 10.4 5.77Q10.39 5.93 10.44 6.05Q10.51 6.17 10.63 6.25Q10.75 6.34 10.9 6.34L12.43 6.34ZM16.1 4.2Q16.32 4.2 16.46 4.04Q16.61 3.89 16.61 3.7Q16.61 3.48 16.46 3.34Q16.32 3.19 16.1 3.19L15.19 3.19L16.51 1.61Q16.61 1.51 16.61 1.37Q16.61 1.22 16.56 1.08Q16.46 0.79 16.1 0.79L14.14 0.79Q13.94 0.79 13.79 0.94Q13.63 1.08 13.63 1.3Q13.63 1.49 13.79 1.64Q13.94 1.8 14.14 1.8L15.05 1.8L13.75 3.36Q13.56 3.62 13.68 3.89Q13.75 4.03 13.87 4.12Q13.99 4.2 14.14 4.2L16.1 4.2Z" fill="rgba(0,0,0,0.9019607843137255)"></path></g></svg>